<svg class="img-fluid" xmlns="http://www.w3.org/2000/svg" style="transform:matrix(1,0,0,1,0,0);transform-origin:50% 50%;cursor:move;transition:transform 200ms ease-in-out 0s" width="377" height="526" viewBox="0 0 3770 5260"><g fill="#FFB341" style="transform:none"><path d="M2278 5205c-35-19-54-75-39-116 5-16 44-76 84-132 586-806 1009-1801 1161-2734 52-316 60-426 61-793 0-423-20-610-100-928-19-75-35-147-35-159 0-85 106-130 169-72 31 29 81 213 121 445 111 655 56 1408-161 2199-168 616-470 1292-823 1848-96 151-290 427-314 445-21 16-91 15-124-3zM1494 4836c-38-17-59-65-57-130 7-154 185-229 239-100 20 48 17 92-11 152-20 43-32 56-67 72-51 23-63 24-104 6zM849 4757c-176-66-251-229-205-447 36-170 156-330 299-400 86-42 204-53 283-26 69 23 142 82 171 138 87 168 25 438-137 600-92 92-191 140-299 145-48 2-90-2-112-10zm219-147c121-57 210-179 249-339 14-61 15-79 5-119-25-92-107-162-192-162-127 0-291 150-341 311-75 239 76 405 279 309z"/><path d="M939 4461c-21-17-24-28-24-88 0-119 68-203 166-203 54 0 74 17 84 72 13 72-38 171-110 214-50 29-85 31-116 5zM93 4536c-37-17-53-43-53-86 0-40 12-62 70-130 138-161 315-416 454-653 595-1017 877-2311 741-3412-15-125-7-171 35-192 58-29 132-5 149 49 5 18 18 105 28 193 25 222 25 808 0 1040-128 1178-541 2234-1192 3045-51 63-102 123-113 133-27 24-80 30-119 13zM1820 4445c-216-61-297-234-200-431 63-130 225-263 412-339 331-134 587-47 606 206 16 226-172 452-458 549-87 29-279 37-360 15zm285-130c102-26 201-81 279-156 138-130 177-262 104-354-85-108-321-77-552 72-134 86-216 196-216 287 0 40 5 52 38 87 68 73 209 99 347 64z"/><path d="M1935 4206c-39-17-55-37-65-81-19-85 47-173 181-239 135-66 230-72 289-16 31 29 32 33 28 94-5 80-35 129-110 178-108 71-244 98-323 64zm171-130c57-27 137-93 128-107-9-15-37-10-100 20-66 31-137 88-128 102 9 15 47 10 100-15zM2640 3563c-68-34-92-150-50-233 48-94 165-90 206 7 29 69 5 189-44 219-35 22-76 25-112 7zM1588 3560c-80-15-160-98-201-208-18-48-22-78-22-197 1-121 4-155 29-249 77-299 217-568 380-732 132-132 260-188 380-165 55 10 52 14 59-89 3-41 15-104 26-139 11-36 18-68 15-73-3-4-32-8-66-8-184 0-368-109-443-263-58-120-66-241-25-363 90-262 399-377 651-243 158 85 258 285 246 494-3 50-7 99-9 110-2 16 8 23 64 41 152 50 270 178 352 385 54 134 76 237 83 379 5 107 3 137-16 210-34 135-94 217-186 256-82 34-219 26-309-17-21-10-42-16-46-14-4 3-10 27-14 55-19 142-103 349-197 485-64 93-194 217-280 268-106 62-201 87-327 86-59-1-124-5-144-9zm289-141c86-29 138-64 231-153 194-186 313-449 313-691 0-170-48-293-151-389-92-84-164-95-274-39-140 71-322 332-415 596-91 260-109 462-51 576 24 47 91 109 127 117 16 3 33 7 38 10 21 8 127-8 182-27zm948-830c61-17 119-83 144-165 63-201-25-548-181-719-101-110-180-143-259-108-119 53-199 228-187 408 4 60 7 66 51 114 63 67 123 194 139 291 6 41 16 81 22 88 23 31 171 101 216 102 8 0 33-5 55-11zm-490-1057c104-53 161-161 152-286-10-148-93-275-218-331-152-68-332 3-411 162-75 153-21 319 137 421 99 64 253 80 340 34z"/><path d="M1726 3157c-91-52-106-173-43-359 94-278 208-420 337-420 118 0 190 100 190 265 0 91-21 172-75 283-53 109-124 192-197 228-69 34-156 36-212 3zm138-122c144-69 276-400 200-502-33-44-55-41-105 15-56 62-119 182-158 298-35 103-38 149-15 182 18 26 35 27 78 7zM2688 2411c-104-34-190-162-219-325-39-227 72-386 225-322 63 26 118 125 161 293 43 164 28 294-39 338-30 20-91 27-128 16zm68-132c31-51-44-328-103-382-19-16-21-16-39 4-15 17-19 36-19 93 1 95 33 190 86 250 41 46 62 56 75 35zM2138 1476c-107-29-163-109-156-222 5-78 41-136 108-172 38-20 56-23 112-20 119 6 188 79 196 204 7 112-34 183-121 209-60 18-76 18-139 1zm119-138c34-31 31-82-6-119-36-36-84-39-118-7-36 33-31 79 12 117 42 37 79 40 112 9zM1119 3499c-31-31-22-113 15-146 63-53 123-14 113 74-9 80-80 120-128 72zM3205 1921c-43-18-85-93-85-150 0-104 78-160 156-112 46 28 67 81 62 159-4 56-8 68-32 88-27 24-65 29-101 15zM2781 1267c-21-26-24-75-7-102 19-29 66-34 90-9 19 18 22 94 4 112-16 16-73 15-87-1zM2955 1096c-100-32-189-96-232-168-91-150-76-331 35-429 141-123 340-65 476 139 105 158 98 297-20 401-73 64-169 85-259 57zm151-135c18-11 43-35 58-54 53-70 27-148-88-264-75-74-115-93-170-79-68 17-125 111-111 183 11 58 39 104 94 156 83 77 154 96 217 58z"/><path d="M2972 849c-49-25-73-63-74-121-1-89 94-72 161 29 36 55 38 66 11 93-25 25-45 25-98-1zM1905 513c-13-12-16-28-12-61 5-48 28-77 68-87 62-15 83 82 30 136-33 33-62 37-86 12z"/></g></svg>